<mxfile host="app.diagrams.net" agent="Mozilla/5.0 (Windows NT 10.0; Win64; x64) AppleWebKit/537.36 (KHTML, like Gecko) Chrome/135.0.0.0 Safari/537.36" version="26.2.12">
  <diagram name="Page-1" id="4jPXtnc8hNpjEfmTCYk6">
    <mxGraphModel grid="1" page="1" gridSize="10" guides="1" tooltips="1" connect="1" arrows="1" fold="1" pageScale="1" pageWidth="1100" pageHeight="850" math="0" shadow="0">
      <root>
        <mxCell id="0" />
        <mxCell id="1" parent="0" />
        <mxCell id="4ag1YvqV0s7WBGobG52Y-2" value="" style="rounded=0;whiteSpace=wrap;html=1;" vertex="1" parent="1">
          <mxGeometry x="55" y="102.39999999999998" width="1110" height="530" as="geometry" />
        </mxCell>
        <mxCell id="cNr6GIgMsYik9N7tj0hz-16" style="edgeStyle=orthogonalEdgeStyle;rounded=0;orthogonalLoop=1;jettySize=auto;html=1;entryX=0;entryY=0.5;entryDx=0;entryDy=0;fontFamily=Times New Roman;exitX=1;exitY=0.5;exitDx=0;exitDy=0;fontSize=16;" edge="1" parent="1" source="0mSnjNKL05JB84g6jMQY-4" target="cNr6GIgMsYik9N7tj0hz-5">
          <mxGeometry relative="1" as="geometry">
            <mxPoint x="125" y="250.07692307692298" as="sourcePoint" />
          </mxGeometry>
        </mxCell>
        <mxCell id="cNr6GIgMsYik9N7tj0hz-71" style="edgeStyle=orthogonalEdgeStyle;rounded=0;orthogonalLoop=1;jettySize=auto;html=1;exitX=1;exitY=0.5;exitDx=0;exitDy=0;entryX=0;entryY=0.5;entryDx=0;entryDy=0;fontSize=16;" edge="1" parent="1" source="0mSnjNKL05JB84g6jMQY-4" target="cNr6GIgMsYik9N7tj0hz-6">
          <mxGeometry relative="1" as="geometry">
            <mxPoint x="125" y="250" as="sourcePoint" />
          </mxGeometry>
        </mxCell>
        <mxCell id="cNr6GIgMsYik9N7tj0hz-4" value="Imbalanced&amp;nbsp;&lt;div&gt;Dataset&lt;/div&gt;" style="text;html=1;align=center;verticalAlign=middle;resizable=0;points=[];autosize=1;strokeColor=none;fillColor=none;fontFamily=Times New Roman;fontSize=16;" vertex="1" parent="1">
          <mxGeometry x="70" y="274.62" width="100" height="50" as="geometry" />
        </mxCell>
        <mxCell id="cNr6GIgMsYik9N7tj0hz-32" style="edgeStyle=orthogonalEdgeStyle;rounded=0;orthogonalLoop=1;jettySize=auto;html=1;entryX=0;entryY=0.5;entryDx=0;entryDy=0;fontFamily=Times New Roman;fontSize=16;" edge="1" parent="1" source="cNr6GIgMsYik9N7tj0hz-5" target="cNr6GIgMsYik9N7tj0hz-14">
          <mxGeometry relative="1" as="geometry" />
        </mxCell>
        <mxCell id="cNr6GIgMsYik9N7tj0hz-33" style="edgeStyle=orthogonalEdgeStyle;rounded=0;orthogonalLoop=1;jettySize=auto;html=1;exitX=1;exitY=0.5;exitDx=0;exitDy=0;entryX=0;entryY=0.5;entryDx=0;entryDy=0;fontFamily=Times New Roman;fontSize=16;" edge="1" parent="1" source="cNr6GIgMsYik9N7tj0hz-5" target="cNr6GIgMsYik9N7tj0hz-15">
          <mxGeometry relative="1" as="geometry" />
        </mxCell>
        <mxCell id="cNr6GIgMsYik9N7tj0hz-5" value="&lt;font&gt;Bagging&lt;/font&gt;" style="rounded=1;whiteSpace=wrap;html=1;fontFamily=Times New Roman;fillColor=#fff2cc;strokeColor=#d6b656;fontSize=16;" vertex="1" parent="1">
          <mxGeometry x="477.49" y="144" width="80" height="40" as="geometry" />
        </mxCell>
        <mxCell id="cNr6GIgMsYik9N7tj0hz-30" style="edgeStyle=orthogonalEdgeStyle;rounded=0;orthogonalLoop=1;jettySize=auto;html=1;exitX=1;exitY=0.5;exitDx=0;exitDy=0;entryX=0;entryY=0.5;entryDx=0;entryDy=0;fontFamily=Times New Roman;fontSize=16;" edge="1" parent="1" source="cNr6GIgMsYik9N7tj0hz-6" target="cNr6GIgMsYik9N7tj0hz-12">
          <mxGeometry relative="1" as="geometry" />
        </mxCell>
        <mxCell id="cNr6GIgMsYik9N7tj0hz-31" style="edgeStyle=orthogonalEdgeStyle;rounded=0;orthogonalLoop=1;jettySize=auto;html=1;exitX=1;exitY=0.5;exitDx=0;exitDy=0;entryX=0;entryY=0.5;entryDx=0;entryDy=0;fontFamily=Times New Roman;fontSize=16;" edge="1" parent="1" source="cNr6GIgMsYik9N7tj0hz-6" target="cNr6GIgMsYik9N7tj0hz-13">
          <mxGeometry relative="1" as="geometry" />
        </mxCell>
        <mxCell id="cNr6GIgMsYik9N7tj0hz-6" value="Boosting" style="rounded=1;whiteSpace=wrap;html=1;fontFamily=Times New Roman;fillColor=#fff2cc;strokeColor=#d6b656;fontSize=16;" vertex="1" parent="1">
          <mxGeometry x="477.49" y="284.62" width="80" height="40" as="geometry" />
        </mxCell>
        <mxCell id="cNr6GIgMsYik9N7tj0hz-10" value="SMOTE" style="rounded=1;whiteSpace=wrap;html=1;fontFamily=Times New Roman;fillColor=#dae8fc;strokeColor=#6c8ebf;fontSize=16;" vertex="1" parent="1">
          <mxGeometry x="265" y="370" width="80" height="40" as="geometry" />
        </mxCell>
        <mxCell id="0mSnjNKL05JB84g6jMQY-39" style="edgeStyle=orthogonalEdgeStyle;rounded=0;orthogonalLoop=1;jettySize=auto;html=1;entryX=0;entryY=0.5;entryDx=0;entryDy=0;fontSize=16;" edge="1" parent="1" source="cNr6GIgMsYik9N7tj0hz-12" target="cNr6GIgMsYik9N7tj0hz-34">
          <mxGeometry relative="1" as="geometry">
            <Array as="points">
              <mxPoint x="840" y="283" />
              <mxPoint x="840" y="315" />
            </Array>
          </mxGeometry>
        </mxCell>
        <mxCell id="cNr6GIgMsYik9N7tj0hz-12" value="AdaBoost" style="rounded=1;whiteSpace=wrap;html=1;fontFamily=Times New Roman;fillColor=#dae8fc;strokeColor=#6c8ebf;fontSize=16;" vertex="1" parent="1">
          <mxGeometry x="625" y="262.62" width="120" height="40" as="geometry" />
        </mxCell>
        <mxCell id="0mSnjNKL05JB84g6jMQY-40" style="edgeStyle=orthogonalEdgeStyle;rounded=0;orthogonalLoop=1;jettySize=auto;html=1;entryX=0;entryY=0.5;entryDx=0;entryDy=0;fontSize=16;" edge="1" parent="1" source="cNr6GIgMsYik9N7tj0hz-13" target="cNr6GIgMsYik9N7tj0hz-34">
          <mxGeometry relative="1" as="geometry">
            <Array as="points">
              <mxPoint x="840" y="363" />
              <mxPoint x="840" y="315" />
            </Array>
          </mxGeometry>
        </mxCell>
        <mxCell id="cNr6GIgMsYik9N7tj0hz-13" value="XGBoost" style="rounded=1;whiteSpace=wrap;html=1;fontFamily=Times New Roman;fillColor=#dae8fc;strokeColor=#6c8ebf;fontSize=16;" vertex="1" parent="1">
          <mxGeometry x="625" y="342.62" width="120" height="40" as="geometry" />
        </mxCell>
        <mxCell id="0mSnjNKL05JB84g6jMQY-37" style="edgeStyle=orthogonalEdgeStyle;rounded=0;orthogonalLoop=1;jettySize=auto;html=1;entryX=0;entryY=0.5;entryDx=0;entryDy=0;fontSize=16;" edge="1" parent="1" source="cNr6GIgMsYik9N7tj0hz-14" target="cNr6GIgMsYik9N7tj0hz-34">
          <mxGeometry relative="1" as="geometry">
            <Array as="points">
              <mxPoint x="840" y="137" />
              <mxPoint x="840" y="315" />
            </Array>
          </mxGeometry>
        </mxCell>
        <mxCell id="cNr6GIgMsYik9N7tj0hz-14" value="&lt;font&gt;Decision Tree as base estimator&lt;/font&gt;" style="rounded=1;whiteSpace=wrap;html=1;fontFamily=Times New Roman;fillColor=#dae8fc;strokeColor=#6c8ebf;fontSize=16;" vertex="1" parent="1">
          <mxGeometry x="625" y="116.62" width="140.56" height="40" as="geometry" />
        </mxCell>
        <mxCell id="0mSnjNKL05JB84g6jMQY-38" style="edgeStyle=orthogonalEdgeStyle;rounded=0;orthogonalLoop=1;jettySize=auto;html=1;entryX=0;entryY=0.5;entryDx=0;entryDy=0;fontSize=16;" edge="1" parent="1" source="cNr6GIgMsYik9N7tj0hz-15" target="cNr6GIgMsYik9N7tj0hz-34">
          <mxGeometry relative="1" as="geometry">
            <Array as="points">
              <mxPoint x="840" y="203" />
              <mxPoint x="840" y="315" />
            </Array>
          </mxGeometry>
        </mxCell>
        <mxCell id="cNr6GIgMsYik9N7tj0hz-15" value="&lt;font&gt;Random Forest as base estimator&lt;/font&gt;" style="rounded=1;whiteSpace=wrap;html=1;fontFamily=Times New Roman;fillColor=#dae8fc;strokeColor=#6c8ebf;fontSize=16;" vertex="1" parent="1">
          <mxGeometry x="625" y="182.62" width="140.56" height="40" as="geometry" />
        </mxCell>
        <mxCell id="cNr6GIgMsYik9N7tj0hz-24" style="edgeStyle=orthogonalEdgeStyle;rounded=0;orthogonalLoop=1;jettySize=auto;html=1;entryX=0;entryY=0.5;entryDx=0;entryDy=0;fontFamily=Times New Roman;exitX=1;exitY=0.5;exitDx=0;exitDy=0;fontSize=16;" edge="1" parent="1" source="0mSnjNKL05JB84g6jMQY-7" target="cNr6GIgMsYik9N7tj0hz-10">
          <mxGeometry relative="1" as="geometry">
            <mxPoint x="130" y="435" as="sourcePoint" />
            <Array as="points">
              <mxPoint x="195" y="437" />
              <mxPoint x="195" y="390" />
            </Array>
          </mxGeometry>
        </mxCell>
        <mxCell id="cNr6GIgMsYik9N7tj0hz-25" style="edgeStyle=orthogonalEdgeStyle;rounded=0;orthogonalLoop=1;jettySize=auto;html=1;entryX=0;entryY=0.5;entryDx=0;entryDy=0;fontFamily=Times New Roman;exitX=1;exitY=0.5;exitDx=0;exitDy=0;fontSize=16;" edge="1" parent="1" source="0mSnjNKL05JB84g6jMQY-7" target="cNr6GIgMsYik9N7tj0hz-23">
          <mxGeometry relative="1" as="geometry">
            <mxPoint x="130" y="435" as="sourcePoint" />
            <Array as="points">
              <mxPoint x="195" y="437" />
              <mxPoint x="195" y="481" />
            </Array>
          </mxGeometry>
        </mxCell>
        <mxCell id="cNr6GIgMsYik9N7tj0hz-23" value="CTGAN" style="rounded=1;whiteSpace=wrap;html=1;fontFamily=Times New Roman;fillColor=#dae8fc;strokeColor=#6c8ebf;fontSize=16;" vertex="1" parent="1">
          <mxGeometry x="265" y="460.77" width="80" height="40" as="geometry" />
        </mxCell>
        <mxCell id="0mSnjNKL05JB84g6jMQY-46" style="edgeStyle=orthogonalEdgeStyle;rounded=0;orthogonalLoop=1;jettySize=auto;html=1;entryX=0;entryY=0.5;entryDx=0;entryDy=0;fontSize=16;" edge="1" parent="1" source="cNr6GIgMsYik9N7tj0hz-27" target="cNr6GIgMsYik9N7tj0hz-34">
          <mxGeometry relative="1" as="geometry">
            <Array as="points">
              <mxPoint x="840" y="430" />
              <mxPoint x="840" y="315" />
            </Array>
          </mxGeometry>
        </mxCell>
        <mxCell id="cNr6GIgMsYik9N7tj0hz-27" value="Supervised ML Algorithms" style="rounded=1;whiteSpace=wrap;html=1;fontFamily=Times New Roman;fillColor=#fff2cc;strokeColor=#d6b656;fontSize=16;" vertex="1" parent="1">
          <mxGeometry x="625" y="414.12" width="155" height="40" as="geometry" />
        </mxCell>
        <mxCell id="0mSnjNKL05JB84g6jMQY-42" style="edgeStyle=orthogonalEdgeStyle;rounded=0;orthogonalLoop=1;jettySize=auto;html=1;exitX=0.5;exitY=1;exitDx=0;exitDy=0;entryX=0.5;entryY=0;entryDx=0;entryDy=0;fontSize=16;" edge="1" parent="1" source="cNr6GIgMsYik9N7tj0hz-34" target="cNr6GIgMsYik9N7tj0hz-55">
          <mxGeometry relative="1" as="geometry" />
        </mxCell>
        <mxCell id="cNr6GIgMsYik9N7tj0hz-34" value="Select Best Models" style="rounded=1;whiteSpace=wrap;html=1;fontFamily=Times New Roman;fillColor=#fff2cc;strokeColor=#d6b656;fontSize=16;" vertex="1" parent="1">
          <mxGeometry x="925" y="288" width="155" height="54.62" as="geometry" />
        </mxCell>
        <mxCell id="cNr6GIgMsYik9N7tj0hz-64" value="Integrate" style="text;html=1;align=center;verticalAlign=middle;resizable=0;points=[];autosize=1;strokeColor=none;fillColor=none;fontFamily=Times New Roman;fontSize=16;" vertex="1" parent="1">
          <mxGeometry x="890" y="500.77" width="80" height="30" as="geometry" />
        </mxCell>
        <mxCell id="JHVgS9Zd5nuDCidWffhD-10" style="edgeStyle=orthogonalEdgeStyle;rounded=0;orthogonalLoop=1;jettySize=auto;html=1;exitX=0.28;exitY=0;exitDx=0;exitDy=0;exitPerimeter=0;curved=1;entryX=0.5;entryY=0;entryDx=0;entryDy=0;fontSize=16;" edge="1" parent="1">
          <mxGeometry relative="1" as="geometry">
            <mxPoint x="117" y="414.99" as="targetPoint" />
            <mxPoint x="108.20000000000005" y="414.99" as="sourcePoint" />
            <Array as="points">
              <mxPoint x="103" y="414.99" />
              <mxPoint x="103" y="394.99" />
              <mxPoint x="117" y="394.99" />
            </Array>
          </mxGeometry>
        </mxCell>
        <mxCell id="JHVgS9Zd5nuDCidWffhD-2" value="Data&amp;nbsp;&lt;div&gt;Augmentation&lt;/div&gt;" style="text;html=1;align=center;verticalAlign=middle;resizable=0;points=[];autosize=1;strokeColor=none;fillColor=none;fontFamily=Times New Roman;fontSize=16;" vertex="1" parent="1">
          <mxGeometry x="50" y="447" width="120" height="50" as="geometry" />
        </mxCell>
        <mxCell id="0mSnjNKL05JB84g6jMQY-47" style="edgeStyle=orthogonalEdgeStyle;rounded=0;orthogonalLoop=1;jettySize=auto;html=1;entryX=0;entryY=0.5;entryDx=0;entryDy=0;fontSize=16;" edge="1" parent="1" source="0mSnjNKL05JB84g6jMQY-3" target="0mSnjNKL05JB84g6jMQY-7">
          <mxGeometry relative="1" as="geometry">
            <Array as="points">
              <mxPoint x="72" y="250" />
              <mxPoint x="72" y="437" />
            </Array>
          </mxGeometry>
        </mxCell>
        <mxCell id="0mSnjNKL05JB84g6jMQY-3" value="" style="shape=image;verticalLabelPosition=bottom;labelBackgroundColor=default;verticalAlign=top;aspect=fixed;imageAspect=0;image=https://img.freepik.com/free-vector/database-cartoon-style_78370-3596.jpg;clipPath=inset(7% 18.33% 17.33% 16.67%);fontSize=16;" vertex="1" parent="1">
          <mxGeometry x="85" y="229.23" width="35.03" height="40.77" as="geometry" />
        </mxCell>
        <mxCell id="0mSnjNKL05JB84g6jMQY-7" value="" style="shape=image;verticalLabelPosition=bottom;labelBackgroundColor=default;verticalAlign=top;aspect=fixed;imageAspect=0;image=https://img.freepik.com/free-vector/database-cartoon-style_78370-3596.jpg;clipPath=inset(7% 18.33% 17.33% 16.67%);fontSize=16;" vertex="1" parent="1">
          <mxGeometry x="92.47999999999999" y="416.23" width="35.03" height="40.77" as="geometry" />
        </mxCell>
        <mxCell id="0mSnjNKL05JB84g6jMQY-2" value="" style="shape=image;verticalLabelPosition=bottom;labelBackgroundColor=default;verticalAlign=top;aspect=fixed;imageAspect=0;image=https://cdn-icons-png.flaticon.com/512/10179/10179118.png;fontSize=16;" vertex="1" parent="1">
          <mxGeometry x="200" y="224.62" width="50" height="50" as="geometry" />
        </mxCell>
        <mxCell id="0mSnjNKL05JB84g6jMQY-13" style="rounded=0;orthogonalLoop=1;jettySize=auto;html=1;entryX=-0.042;entryY=0.495;entryDx=0;entryDy=0;entryPerimeter=0;fontSize=16;" edge="1" parent="1" source="0mSnjNKL05JB84g6jMQY-3" target="0mSnjNKL05JB84g6jMQY-2">
          <mxGeometry relative="1" as="geometry" />
        </mxCell>
        <mxCell id="0mSnjNKL05JB84g6jMQY-14" value="Data&amp;nbsp;&lt;div&gt;Cleaning&lt;/div&gt;" style="text;html=1;align=center;verticalAlign=middle;resizable=0;points=[];autosize=1;strokeColor=none;fillColor=none;fontFamily=Times New Roman;fontSize=16;" vertex="1" parent="1">
          <mxGeometry x="175" y="269.62" width="80" height="50" as="geometry" />
        </mxCell>
        <mxCell id="0mSnjNKL05JB84g6jMQY-15" value="" style="edgeStyle=orthogonalEdgeStyle;rounded=0;orthogonalLoop=1;jettySize=auto;html=1;exitX=1;exitY=0.5;exitDx=0;exitDy=0;entryX=0;entryY=0.5;entryDx=0;entryDy=0;fontSize=16;" edge="1" parent="1" source="0mSnjNKL05JB84g6jMQY-2" target="0mSnjNKL05JB84g6jMQY-4">
          <mxGeometry relative="1" as="geometry">
            <mxPoint x="250" y="250" as="sourcePoint" />
            <mxPoint x="645" y="129" as="targetPoint" />
          </mxGeometry>
        </mxCell>
        <mxCell id="0mSnjNKL05JB84g6jMQY-16" value="" style="edgeStyle=orthogonalEdgeStyle;rounded=0;orthogonalLoop=1;jettySize=auto;html=1;entryX=0;entryY=0.5;entryDx=0;entryDy=0;fontFamily=Times New Roman;exitX=1;exitY=0.5;exitDx=0;exitDy=0;fontSize=16;" edge="1" parent="1" source="0mSnjNKL05JB84g6jMQY-2" target="0mSnjNKL05JB84g6jMQY-4">
          <mxGeometry relative="1" as="geometry">
            <mxPoint x="250" y="250" as="sourcePoint" />
            <mxPoint x="645" y="-31" as="targetPoint" />
          </mxGeometry>
        </mxCell>
        <mxCell id="0mSnjNKL05JB84g6jMQY-4" value="" style="shape=image;verticalLabelPosition=bottom;labelBackgroundColor=default;verticalAlign=top;aspect=fixed;imageAspect=0;image=https://img.freepik.com/premium-vector/funnel-glyph-solid-black-illustration_120816-25337.jpg;fontSize=16;" vertex="1" parent="1">
          <mxGeometry x="325" y="222.4" width="54.43" height="54.43" as="geometry" />
        </mxCell>
        <mxCell id="0mSnjNKL05JB84g6jMQY-17" value="Feature&lt;div&gt;Engineering&lt;/div&gt;" style="text;html=1;align=center;verticalAlign=middle;resizable=0;points=[];autosize=1;strokeColor=none;fillColor=none;fontFamily=Times New Roman;fontSize=16;" vertex="1" parent="1">
          <mxGeometry x="302.21" y="269.62" width="100" height="50" as="geometry" />
        </mxCell>
        <mxCell id="0mSnjNKL05JB84g6jMQY-24" value="" style="edgeStyle=orthogonalEdgeStyle;rounded=0;orthogonalLoop=1;jettySize=auto;html=1;fontSize=16;" edge="1" parent="1" source="0mSnjNKL05JB84g6jMQY-20" target="cNr6GIgMsYik9N7tj0hz-27">
          <mxGeometry relative="1" as="geometry" />
        </mxCell>
        <mxCell id="0mSnjNKL05JB84g6jMQY-20" value="" style="shape=image;verticalLabelPosition=bottom;labelBackgroundColor=default;verticalAlign=top;aspect=fixed;imageAspect=0;image=https://img.freepik.com/free-vector/database-cartoon-style_78370-3596.jpg;clipPath=inset(7% 18.33% 17.33% 16.67%);container=0;fontSize=16;" vertex="1" parent="1">
          <mxGeometry x="494.9700000000001" y="414.12" width="35.03" height="40.77" as="geometry" />
        </mxCell>
        <mxCell id="cNr6GIgMsYik9N7tj0hz-47" value="Balanced&amp;nbsp;&lt;div&gt;Dataset&lt;/div&gt;" style="text;html=1;align=center;verticalAlign=middle;resizable=0;points=[];autosize=1;strokeColor=none;fillColor=none;fontFamily=Times New Roman;container=0;fontSize=16;" vertex="1" parent="1">
          <mxGeometry x="467.49000000000007" y="455.77" width="90" height="50" as="geometry" />
        </mxCell>
        <mxCell id="0mSnjNKL05JB84g6jMQY-35" style="edgeStyle=orthogonalEdgeStyle;rounded=0;orthogonalLoop=1;jettySize=auto;html=1;exitX=1;exitY=0.5;exitDx=0;exitDy=0;fontSize=16;" edge="1" parent="1" source="cNr6GIgMsYik9N7tj0hz-10" target="0mSnjNKL05JB84g6jMQY-25">
          <mxGeometry relative="1" as="geometry">
            <Array as="points">
              <mxPoint x="415" y="390" />
              <mxPoint x="415" y="435" />
            </Array>
          </mxGeometry>
        </mxCell>
        <mxCell id="0mSnjNKL05JB84g6jMQY-36" style="edgeStyle=orthogonalEdgeStyle;rounded=0;orthogonalLoop=1;jettySize=auto;html=1;exitX=1;exitY=0.5;exitDx=0;exitDy=0;fontSize=16;" edge="1" parent="1" source="cNr6GIgMsYik9N7tj0hz-23" target="0mSnjNKL05JB84g6jMQY-25">
          <mxGeometry relative="1" as="geometry">
            <Array as="points">
              <mxPoint x="415" y="481" />
              <mxPoint x="415" y="435" />
            </Array>
          </mxGeometry>
        </mxCell>
        <mxCell id="0mSnjNKL05JB84g6jMQY-25" value="&lt;font style=&quot;color: rgb(255, 255, 255);&quot;&gt;&lt;b&gt;*&lt;/b&gt;&lt;/font&gt;" style="text;html=1;align=center;verticalAlign=middle;resizable=0;points=[];autosize=1;strokeColor=none;fillColor=none;container=0;fontSize=16;" vertex="1" parent="1">
          <mxGeometry x="497.49000000000007" y="429.12" width="30" height="30" as="geometry" />
        </mxCell>
        <mxCell id="0mSnjNKL05JB84g6jMQY-49" value="" style="edgeStyle=orthogonalEdgeStyle;rounded=0;orthogonalLoop=1;jettySize=auto;html=1;fontSize=16;" edge="1" parent="1" source="cNr6GIgMsYik9N7tj0hz-55" target="0mSnjNKL05JB84g6jMQY-48">
          <mxGeometry relative="1" as="geometry" />
        </mxCell>
        <mxCell id="cNr6GIgMsYik9N7tj0hz-55" value="Create Stacking Ensemble Model" style="rounded=1;whiteSpace=wrap;html=1;fontFamily=Times New Roman;fillColor=#d5e8d4;strokeColor=#82b366;fontSize=16;" vertex="1" parent="1">
          <mxGeometry x="935" y="405" width="135" height="40" as="geometry" />
        </mxCell>
        <mxCell id="cNr6GIgMsYik9N7tj0hz-62" value="Integrate" style="text;html=1;align=center;verticalAlign=middle;resizable=0;points=[];autosize=1;strokeColor=none;fillColor=none;fontFamily=Times New Roman;fontSize=16;" vertex="1" parent="1">
          <mxGeometry x="1000" y="459.11999999999995" width="80" height="30" as="geometry" />
        </mxCell>
        <mxCell id="0mSnjNKL05JB84g6jMQY-136" style="edgeStyle=orthogonalEdgeStyle;rounded=0;orthogonalLoop=1;jettySize=auto;html=1;entryX=0;entryY=0.5;entryDx=0;entryDy=0;fontSize=16;" edge="1" parent="1" source="0mSnjNKL05JB84g6jMQY-134" target="0mSnjNKL05JB84g6jMQY-48">
          <mxGeometry relative="1" as="geometry" />
        </mxCell>
        <mxCell id="0mSnjNKL05JB84g6jMQY-142" value="" style="edgeStyle=orthogonalEdgeStyle;rounded=0;orthogonalLoop=1;jettySize=auto;html=1;fontSize=16;" edge="1" parent="1" source="0mSnjNKL05JB84g6jMQY-48" target="0mSnjNKL05JB84g6jMQY-140">
          <mxGeometry relative="1" as="geometry" />
        </mxCell>
        <mxCell id="0mSnjNKL05JB84g6jMQY-48" value="" style="shape=image;verticalLabelPosition=bottom;labelBackgroundColor=default;verticalAlign=top;aspect=fixed;imageAspect=0;image=https://img.freepik.com/free-vector/www-internet-globe-grid_78370-2008.jpg;clipPath=inset(1.33% 3% 9% 3.33%);fontSize=16;" vertex="1" parent="1">
          <mxGeometry x="969.9999999999999" y="497" width="64.77" height="62" as="geometry" />
        </mxCell>
        <mxCell id="0mSnjNKL05JB84g6jMQY-54" value="Web&amp;nbsp;&lt;div&gt;Appl&lt;span style=&quot;background-color: transparent; color: light-dark(rgb(0, 0, 0), rgb(255, 255, 255));&quot;&gt;ication&lt;/span&gt;&lt;/div&gt;" style="text;html=1;align=center;verticalAlign=middle;resizable=0;points=[];autosize=1;strokeColor=none;fillColor=none;fontFamily=Times New Roman;fontSize=16;" vertex="1" parent="1">
          <mxGeometry x="955" y="554.27" width="100" height="50" as="geometry" />
        </mxCell>
        <mxCell id="0mSnjNKL05JB84g6jMQY-55" value="Llama 3.1&amp;nbsp;&lt;div&gt;Nemotron 70B&amp;nbsp;&lt;/div&gt;&lt;div&gt;Instruct&amp;nbsp;&lt;/div&gt;" style="text;html=1;align=center;verticalAlign=middle;resizable=0;points=[];autosize=1;strokeColor=none;fillColor=none;fontFamily=Times New Roman;fontSize=16;" vertex="1" parent="1">
          <mxGeometry x="783.7" y="562.4" width="120" height="70" as="geometry" />
        </mxCell>
        <mxCell id="0mSnjNKL05JB84g6jMQY-134" value="" style="shape=image;verticalLabelPosition=bottom;labelBackgroundColor=default;verticalAlign=top;aspect=fixed;imageAspect=0;image=https://t3.ftcdn.net/jpg/07/41/08/12/360_F_741081263_IWWaoUZLB20TnrueRp9HITVQMgoXVbN2.jpg;fontSize=16;" vertex="1" parent="1">
          <mxGeometry x="805" y="490" width="77.4" height="77.4" as="geometry" />
        </mxCell>
        <mxCell id="0mSnjNKL05JB84g6jMQY-139" value="Diagnostic&amp;nbsp;&lt;div&gt;Report&lt;/div&gt;" style="text;html=1;align=center;verticalAlign=middle;resizable=0;points=[];autosize=1;strokeColor=none;fillColor=none;fontFamily=Times New Roman;fontSize=16;" vertex="1" parent="1">
          <mxGeometry x="1075" y="562.4" width="100" height="50" as="geometry" />
        </mxCell>
        <mxCell id="0mSnjNKL05JB84g6jMQY-140" value="" style="shape=image;verticalLabelPosition=bottom;labelBackgroundColor=default;verticalAlign=top;aspect=fixed;imageAspect=0;image=https://cdn3d.iconscout.com/3d/premium/thumb/report-3d-icon-download-in-png-blend-fbx-gltf-file-formats--analytics-logo-chart-graph-pack-business-icons-4818086.png;fontSize=16;" vertex="1" parent="1">
          <mxGeometry x="1080" y="486.2" width="85" height="85" as="geometry" />
        </mxCell>
      </root>
    </mxGraphModel>
  </diagram>
</mxfile>
